<?xml version="1.0" encoding="UTF-8" standalone="no"?>
<!-- Created with Inkscape (http://www.inkscape.org/) -->

<svg
   width="100mm"
   height="100mm"
   viewBox="0 0 100 100"
   version="1.1"
   id="svg1"
   xmlns="http://www.w3.org/2000/svg"
   xmlns:svg="http://www.w3.org/2000/svg">
  <defs
     id="defs1" />
  <g
     id="layer1">
    <path
       id="rect4"
       style="fill:#ffffff;fill-opacity:1;stroke-width:15.6464"
       d="M 0 0 L 0 100.0001 L 100.0001 100.0001 L 100.0001 0 L 0 0 z M 3.9997559 3.9997559 L 95.999825 3.9997559 L 95.999825 95.999825 L 3.9997559 95.999825 L 3.9997559 3.9997559 z " />
    <g
       id="text1"
       style="font-weight:bold;font-size:29.1px;line-height:1.05;font-family:Sans;-inkscape-font-specification:'Sans, Bold';letter-spacing:5.60917px;fill:#ffffff;stroke-width:9.80001"
       aria-label="FREI&#10;BURG&#10;.RUN">
      <path
         style="font-family:'PT Mono';-inkscape-font-specification:'PT Mono Bold';stroke-width:9.8"
         d="M 8.5843999,8.929999 H 21.5048 v 3.5502 h -8.9337 v 5.0343 h 8.2935 v 3.5502 h -8.2935 v 8.2353 H 8.5843999 Z m 22.4289791,0.2037 q 0.6693,-0.1164 1.4259,-0.2037 0.7857,-0.1164 1.5423,-0.1746 0.7857,-0.0582 1.5132,-0.0873 0.7275,-0.0291 1.338601,-0.0291 1.4259,0 2.7936,0.291 1.3968,0.2619 2.4735,0.9312 1.1058,0.6693 1.746,1.8042 0.6693,1.1349 0.6693,2.8227 0,1.2513 -0.2619,2.1825 -0.2328,0.9021 -0.6693,1.6005 -0.4365,0.6984 -1.0767,1.2222 -0.6111,0.4947 -1.3386,0.9021 l 4.9179,8.9046 h -4.5978 l -4.1031,-7.9734 h -2.386201 v 7.9734 h -3.9867 z m 6.111001,3.0555 q -0.611101,0 -1.222201,0.0291 -0.582,0.0291 -0.9021,0.1164 v 5.9073 h 1.5714 q 1.658701,0 2.706301,-0.7566 1.0476,-0.7566 1.0476,-2.5026 0,-1.3095 -0.8148,-2.037 -0.8148,-0.7566 -2.3862,-0.7566 z m 17.190979,-3.2592 h 13.3569 v 3.5502 h -9.3702 v 4.7433 h 8.6427 v 3.5502 h -8.6427 v 4.9761 h 9.5157 v 3.5502 h -13.5024 z m 22.603583,16.8198 h 5.1507 v -13.2696 h -5.1507 v -3.5502 h 14.3172 v 3.5502 h -5.1798 v 13.2696 h 5.1798 v 3.5502 h -14.3172 z"
         id="path1" />
      <path
         style="font-family:'PT Mono';-inkscape-font-specification:'PT Mono Bold';stroke-width:9.8"
         d="m 21.6503,44.73261 q 0,0.7566 -0.2037,1.5132 -0.1746,0.7566 -0.6111,1.3968 -0.4365,0.6111 -1.1349,1.1058 -0.6984,0.4656 -1.6878,0.6984 v 0.1746 q 0.873,0.1455 1.6587,0.4947 0.7857,0.3492 1.3677,0.9603 0.582,0.6111 0.9021,1.4841 0.3492,0.873 0.3492,2.0661 0,1.5714 -0.6693,2.7354 -0.6693,1.1349 -1.8042,1.8624 -1.1058,0.7275 -2.5317,1.0767 -1.4259,0.3492 -2.9391,0.3492 -0.4947,0 -1.2804,0 -0.7566,0 -1.6587,-0.0582 -0.873,-0.0291 -1.8042001,-0.1164 -0.9021,-0.0873 -1.6587,-0.2619 v -20.079 q 0.5529,-0.0873 1.2513,-0.1746 0.7275,-0.0873 1.5423001,-0.1455 0.8148,-0.0582 1.6587,-0.0873 0.873,-0.0291 1.7169,-0.0291 1.4259,0 2.7645,0.2328 1.3677,0.2037 2.4153,0.7566 1.0767,0.5529 1.7169,1.5423 0.6402,0.9894 0.6402,2.5026 z m -7.275,12.6294 q 0.7275,0 1.3968,-0.1746 0.6984,-0.1746 1.2222,-0.5238 0.5238,-0.3783 0.8439,-0.9312 0.3201,-0.5529 0.3201,-1.3095 0,-0.9603 -0.3783,-1.5132 -0.3783,-0.5529 -0.9894,-0.8439 -0.6111,-0.3201 -1.3677,-0.4074 -0.7566,-0.0873 -1.5132,-0.0873 h -2.1243 v 5.6163 q 0.1455,0.0582 0.4656,0.0873 0.3201,0.0291 0.6693,0.0582 0.3783,0 0.7566,0.0291 0.4074,0 0.6984,0 z m -1.3095,-8.8173 q 0.4074,0 0.9312,-0.0291 0.5529,-0.0291 0.9021,-0.0873 1.1058,-0.3492 1.8915,-1.0476 0.8148,-0.6984 0.8148,-1.8333 0,-0.7566 -0.291,-1.2513 -0.291,-0.4947 -0.7857,-0.7857 -0.4656,-0.291 -1.0767,-0.4074 -0.6111,-0.1164 -1.2804,-0.1164 -0.7566,0 -1.3968,0.0291 -0.6402,0.0291 -0.9894,0.0873 v 5.4417 z m 28.36538,-8.5554 h 3.783 v 13.0368 q 0,1.9788 -0.5238,3.4338 -0.5238,1.4259 -1.4841,2.3862 -0.9312,0.9312 -2.2407,1.3968 -1.3095,0.4656 -2.8809,0.4656 -3.783001,0 -5.616301,-1.8333 -1.8042,-1.8333 -1.8042,-5.3544 v -13.5315 h 3.9867 v 12.7458 q 0,2.328 0.8439,3.3756 0.8439,1.0476 2.648101,1.0476 1.746,0 2.5026,-1.1058 0.7857,-1.1349 0.7857,-3.3174 z m 12.651379,0.2037 q 0.6693,-0.1164 1.4259,-0.2037 0.7857,-0.1164 1.5423,-0.1746 0.7857,-0.0582 1.5132,-0.0873 0.7275,-0.0291 1.3386,-0.0291 1.4259,0 2.7936,0.291 1.3968,0.2619 2.4735,0.9312 1.1058,0.6693 1.746,1.8042 0.6693,1.1349 0.6693,2.8227 0,1.2513 -0.2619,2.1825 -0.2328,0.9021 -0.6693,1.6005 -0.4365,0.6984 -1.0767,1.2222 -0.6111,0.4947 -1.3386,0.9021 l 4.9179,8.9046 h -4.5978 l -4.1031,-7.9734 h -2.3862 v 7.9734 h -3.9867 z m 6.111,3.0555 q -0.6111,0 -1.2222,0.0291 -0.582,0.0291 -0.9021,0.1164 v 5.9073 h 1.5714 q 1.6587,0 2.7063,-0.7566 1.0476,-0.7566 1.0476,-2.5026 0,-1.3095 -0.8148,-2.037 -0.8148,-0.7566 -2.3862,-0.7566 z m 24.553283,6.4893 h 6.954901 v 9.1956 q -0.989401,0.9021 -2.589901,1.3677 -1.5714,0.4656 -3.2301,0.4656 -1.9497,0 -3.6666,-0.6693 -1.6878,-0.6693 -2.9391,-2.0079 -1.2513,-1.3677 -1.9788,-3.3465 -0.7275,-2.0079 -0.7275,-4.6851 0,-2.8227 0.873,-4.8015 0.873,-1.9788 2.2407,-3.2301 1.3968,-1.2804 3.1137,-1.8624 1.7169,-0.582 3.4047,-0.582 1.746,0 2.91,0.291 1.164,0.2619 2.1243,0.6984 v 6.0237 h -3.201 v -3.2301 q -0.2328,-0.0582 -0.4656,-0.1164 -0.582,-0.1164 -1.2804,-0.1164 -1.1931,0 -2.2116,0.4074 -1.0185,0.4074 -1.7751,1.2804 -0.7275,0.8439 -1.1349,2.1825 -0.4074,1.3386 -0.4074,3.201 0,1.6587 0.4074,2.9682 0.4074,1.3095 1.1349,2.2116 0.7275,0.9021 1.7169,1.3677 1.0185,0.4656 2.1825,0.4656 0.7566,0 1.3677,-0.1746 0.6402,-0.1746 0.873,-0.3492 v -4.0449 h -3.6957 z"
         id="path2" />
      <path
         style="font-family:'PT Mono';-inkscape-font-specification:'PT Mono Bold';stroke-width:9.8"
         d="m 12.5129,89.498022 q 0,-1.0185 0.6402,-1.6005 0.6402,-0.6111 1.6878,-0.6111 1.1058,0 1.746,0.6111 0.6402,0.582 0.6402,1.6005 0,1.0185 -0.6402,1.6296 -0.6402,0.6111 -1.746,0.6111 -1.0476,0 -1.6878,-0.6111 -0.6402,-0.6111 -0.6402,-1.6296 z M 31.013379,71.252321 q 0.6693,-0.1164 1.4259,-0.2037 0.7857,-0.1164 1.5423,-0.1746 0.7857,-0.0582 1.5132,-0.0873 0.7275,-0.0291 1.338601,-0.0291 1.4259,0 2.7936,0.291 1.3968,0.2619 2.4735,0.9312 1.1058,0.6693 1.746,1.8042 0.6693,1.1349 0.6693,2.822701 0,1.2513 -0.2619,2.1825 -0.2328,0.9021 -0.6693,1.6005 -0.4365,0.6984 -1.0767,1.2222 -0.6111,0.4947 -1.3386,0.9021 l 4.9179,8.9046 h -4.5978 l -4.1031,-7.9734 h -2.386201 v 7.9734 h -3.9867 z m 6.111001,3.0555 q -0.611101,0 -1.222201,0.0291 -0.582,0.0291 -0.9021,0.1164 v 5.907301 h 1.5714 q 1.658701,0 2.706301,-0.7566 1.0476,-0.7566 1.0476,-2.5026 0,-1.3095 -0.8148,-2.037001 -0.8148,-0.7566 -2.3862,-0.7566 z m 27.375979,-3.2592 h 3.783 v 13.036801 q 0,1.9788 -0.5238,3.4338 -0.5238,1.4259 -1.4841,2.3862 -0.9312,0.9312 -2.2407,1.3968 -1.3095,0.4656 -2.8809,0.4656 -3.783,0 -5.6163,-1.8333 -1.8042,-1.8333 -1.8042,-5.3544 V 71.048621 h 3.9867 v 12.745801 q 0,2.328 0.8439,3.3756 0.8439,1.0476 2.6481,1.0476 1.746,0 2.5026,-1.1058 0.7857,-1.1349 0.7857,-3.3174 z m 16.230683,8.322601 h -0.1455 l 0.1746,2.4153 v 9.6321 h -3.783 V 71.048621 h 3.492 l 7.0422,12.454801 h 0.1455 l -0.2619,-2.4444 V 71.048621 h 3.783 v 20.370001 h -3.492 z"
         id="path3" />
    </g>
  </g>
</svg>
