<svg width="465" height="465" viewBox="0 0 465 465" fill="none" xmlns="http://www.w3.org/2000/svg">
<path d="M98.6602 82.4336V96.1445H54.1289V82.4336H98.6602ZM59.3438 47.6875V133H41.7656V47.6875H59.3438ZM111.199 47.6875V133H93.6797V47.6875H111.199ZM183.738 119.289V133H138.328V119.289H183.738ZM144.07 47.6875V133H126.492V47.6875H144.07ZM177.82 82.4336V95.793H138.328V82.4336H177.82ZM183.68 47.6875V61.457H138.328V47.6875H183.68ZM212.684 47.6875V133H195.164V47.6875H212.684ZM255.34 133H236.766L236.883 119.289H255.34C259.949 119.289 263.836 118.254 267 116.184C270.164 114.074 272.547 111.008 274.148 106.984C275.789 102.961 276.609 98.0977 276.609 92.3945V88.2344C276.609 83.8594 276.141 80.0117 275.203 76.6914C274.305 73.3711 272.957 70.5781 271.16 68.3125C269.363 66.0469 267.156 64.3477 264.539 63.2148C261.922 62.043 258.914 61.457 255.516 61.457H236.414V47.6875H255.516C261.219 47.6875 266.434 48.6641 271.16 50.6172C275.926 52.5312 280.047 55.2852 283.523 58.8789C287 62.4727 289.676 66.7695 291.551 71.7695C293.465 76.7305 294.422 82.2578 294.422 88.3516V92.3945C294.422 98.4492 293.465 103.977 291.551 108.977C289.676 113.977 287 118.273 283.523 121.867C280.086 125.422 275.965 128.176 271.16 130.129C266.395 132.043 261.121 133 255.34 133ZM246.727 47.6875V133H229.148V47.6875H246.727ZM364.441 119.289V133H319.031V119.289H364.441ZM324.773 47.6875V133H307.195V47.6875H324.773ZM358.523 82.4336V95.793H319.031V82.4336H358.523ZM364.383 47.6875V61.457H319.031V47.6875H364.383ZM429.539 119.289V133H386.59V119.289H429.539ZM392.273 47.6875V133H374.695V47.6875H392.273ZM170.203 236.559H148.289L148.172 224.488H166.57C169.812 224.488 172.469 224.078 174.539 223.258C176.609 222.398 178.152 221.168 179.168 219.566C180.223 217.926 180.75 215.934 180.75 213.59C180.75 210.934 180.242 208.785 179.227 207.145C178.25 205.504 176.707 204.312 174.598 203.57C172.527 202.828 169.852 202.457 166.57 202.457H154.383V274H136.805V188.688H166.57C171.531 188.688 175.965 189.156 179.871 190.094C183.816 191.031 187.156 192.457 189.891 194.371C192.625 196.285 194.715 198.707 196.16 201.637C197.605 204.527 198.328 207.965 198.328 211.949C198.328 215.465 197.527 218.707 195.926 221.676C194.363 224.645 191.883 227.066 188.484 228.941C185.125 230.816 180.73 231.852 175.301 232.047L170.203 236.559ZM169.441 274H143.484L150.34 260.289H169.441C172.527 260.289 175.047 259.801 177 258.824C178.953 257.809 180.398 256.441 181.336 254.723C182.273 253.004 182.742 251.031 182.742 248.805C182.742 246.305 182.312 244.137 181.453 242.301C180.633 240.465 179.305 239.059 177.469 238.082C175.633 237.066 173.211 236.559 170.203 236.559H153.27L153.387 224.488H174.48L178.523 229.234C183.719 229.156 187.898 230.074 191.062 231.988C194.266 233.863 196.59 236.305 198.035 239.312C199.52 242.32 200.262 245.543 200.262 248.98C200.262 254.449 199.07 259.059 196.688 262.809C194.305 266.52 190.809 269.312 186.199 271.188C181.629 273.062 176.043 274 169.441 274ZM270.691 260.289V274H225.281V260.289H270.691ZM231.023 188.688V274H213.445V188.688H231.023ZM264.773 223.434V236.793H225.281V223.434H264.773ZM270.633 188.688V202.457H225.281V188.688H270.633ZM280.945 188.688H312.762C319.285 188.688 324.891 189.664 329.578 191.617C334.305 193.57 337.938 196.461 340.477 200.289C343.016 204.117 344.285 208.824 344.285 214.41C344.285 218.98 343.504 222.906 341.941 226.188C340.418 229.43 338.25 232.145 335.438 234.332C332.664 236.48 329.402 238.199 325.652 239.488L320.086 242.418H292.43L292.312 228.707H312.879C315.965 228.707 318.523 228.16 320.555 227.066C322.586 225.973 324.109 224.449 325.125 222.496C326.18 220.543 326.707 218.277 326.707 215.699C326.707 212.965 326.199 210.602 325.184 208.609C324.168 206.617 322.625 205.094 320.555 204.039C318.484 202.984 315.887 202.457 312.762 202.457H298.523V274H280.945V188.688ZM328.641 274L309.188 235.973L327.762 235.855L347.449 273.18V274H328.641ZM425.438 229.41V263.219C424.109 264.82 422.059 266.559 419.285 268.434C416.512 270.27 412.938 271.852 408.562 273.18C404.188 274.508 398.895 275.172 392.684 275.172C387.176 275.172 382.156 274.273 377.625 272.477C373.094 270.641 369.188 267.965 365.906 264.449C362.664 260.934 360.164 256.637 358.406 251.559C356.648 246.441 355.77 240.602 355.77 234.039V228.707C355.77 222.145 356.609 216.305 358.289 211.188C360.008 206.07 362.449 201.754 365.613 198.238C368.777 194.723 372.547 192.047 376.922 190.211C381.297 188.375 386.16 187.457 391.512 187.457C398.934 187.457 405.027 188.668 409.793 191.09C414.559 193.473 418.191 196.793 420.691 201.051C423.23 205.27 424.793 210.113 425.379 215.582H408.328C407.898 212.691 407.078 210.172 405.867 208.023C404.656 205.875 402.918 204.195 400.652 202.984C398.426 201.773 395.535 201.168 391.98 201.168C389.051 201.168 386.434 201.773 384.129 202.984C381.863 204.156 379.949 205.895 378.387 208.199C376.824 210.504 375.633 213.355 374.812 216.754C373.992 220.152 373.582 224.098 373.582 228.59V234.039C373.582 238.492 374.012 242.438 374.871 245.875C375.73 249.273 377 252.145 378.68 254.488C380.398 256.793 382.508 258.531 385.008 259.703C387.508 260.875 390.418 261.461 393.738 261.461C396.512 261.461 398.816 261.227 400.652 260.758C402.527 260.289 404.031 259.723 405.164 259.059C406.336 258.355 407.234 257.691 407.859 257.066V241.949H391.805V229.41H425.438ZM163.875 406.855C163.875 404.355 164.734 402.266 166.453 400.586C168.211 398.906 170.535 398.066 173.426 398.066C176.316 398.066 178.621 398.906 180.34 400.586C182.098 402.266 182.977 404.355 182.977 406.855C182.977 409.355 182.098 411.445 180.34 413.125C178.621 414.805 176.316 415.645 173.426 415.645C170.535 415.645 168.211 414.805 166.453 413.125C164.734 411.445 163.875 409.355 163.875 406.855ZM198.914 329.688H230.73C237.254 329.688 242.859 330.664 247.547 332.617C252.273 334.57 255.906 337.461 258.445 341.289C260.984 345.117 262.254 349.824 262.254 355.41C262.254 359.98 261.473 363.906 259.91 367.188C258.387 370.43 256.219 373.145 253.406 375.332C250.633 377.48 247.371 379.199 243.621 380.488L238.055 383.418H210.398L210.281 369.707H230.848C233.934 369.707 236.492 369.16 238.523 368.066C240.555 366.973 242.078 365.449 243.094 363.496C244.148 361.543 244.676 359.277 244.676 356.699C244.676 353.965 244.168 351.602 243.152 349.609C242.137 347.617 240.594 346.094 238.523 345.039C236.453 343.984 233.855 343.457 230.73 343.457H216.492V415H198.914V329.688ZM246.609 415L227.156 376.973L245.73 376.855L265.418 414.18V415H246.609ZM322.898 329.688H340.418V386.055C340.418 392.617 339.012 398.145 336.199 402.637C333.426 407.129 329.578 410.508 324.656 412.773C319.773 415.039 314.148 416.172 307.781 416.172C301.414 416.172 295.75 415.039 290.789 412.773C285.867 410.508 282 407.129 279.188 402.637C276.414 398.145 275.027 392.617 275.027 386.055V329.688H292.605V386.055C292.605 389.883 293.211 393.008 294.422 395.43C295.633 397.852 297.371 399.629 299.637 400.762C301.941 401.895 304.656 402.461 307.781 402.461C310.984 402.461 313.699 401.895 315.926 400.762C318.191 399.629 319.91 397.852 321.082 395.43C322.293 393.008 322.898 389.883 322.898 386.055V329.688ZM424.324 329.688V415H406.746L372.469 357.812V415H354.891V329.688H372.469L406.805 386.934V329.688H424.324Z" fill="white"/>
<rect x="5" y="5" width="455" height="455" stroke="white" stroke-width="10"/>
</svg>
