<svg width="465" height="465" viewBox="0 0 465 465" fill="none" xmlns="http://www.w3.org/2000/svg">
<path d="M63.0324 109.715C62.1224 109.715 61.6674 110.17 61.6674 111.08V140.585C61.6674 142.195 60.7224 143 58.8324 143H45.6024C44.6924 143 44.0624 142.825 43.7124 142.475C43.4324 142.125 43.2924 141.565 43.2924 140.795V67.085C43.2924 65.755 43.8524 65.09 44.9724 65.09H59.9874C61.1074 65.09 61.6674 65.72 61.6674 66.98V93.86C61.6674 95.05 62.1924 95.645 63.2424 95.645H87.4974C88.6174 95.645 89.1774 95.085 89.1774 93.965V66.98C89.1774 65.72 89.7024 65.09 90.7524 65.09H105.767C106.957 65.09 107.552 65.755 107.552 67.085V140.795C107.552 141.565 107.377 142.125 107.027 142.475C106.747 142.825 106.152 143 105.242 143H91.9074C90.0874 143 89.1774 142.195 89.1774 140.585V111.08C89.1774 110.17 88.6874 109.715 87.7074 109.715H63.0324ZM122.145 67.085C122.145 65.755 122.705 65.09 123.825 65.09H176.745C177.795 65.09 178.32 65.685 178.32 66.875L178.215 76.325C178.215 77.795 177.48 78.53 176.01 78.53H142.515C141.185 78.53 140.52 79.09 140.52 80.21V95.435C140.52 96.625 141.045 97.22 142.095 97.22H164.355C165.545 97.22 166.14 97.78 166.14 98.9V108.98C166.14 109.4 166 109.75 165.72 110.03C165.51 110.31 165.09 110.45 164.46 110.45H141.99C141.01 110.45 140.52 110.87 140.52 111.71V128.195C140.52 129.105 140.905 129.56 141.675 129.56H177.585C178.845 129.56 179.475 130.085 179.475 131.135V141.11C179.475 141.67 179.3 142.125 178.95 142.475C178.67 142.825 178.145 143 177.375 143H124.455C122.915 143 122.145 142.265 122.145 140.795V67.085ZM207.541 65.09C208.661 65.09 209.221 65.72 209.221 66.98V140.48C209.221 141.39 208.976 142.055 208.486 142.475C208.066 142.825 207.366 143 206.386 143H193.156C192.246 143 191.616 142.825 191.266 142.475C190.986 142.125 190.846 141.565 190.846 140.795V67.085C190.846 65.755 191.406 65.09 192.526 65.09H207.541ZM226.276 65.09C227.536 65.09 229.216 65.09 231.316 65.09C233.486 65.09 235.726 65.09 238.036 65.09C240.416 65.09 242.656 65.09 244.756 65.09C246.856 65.09 248.501 65.125 249.691 65.195C259.141 65.405 266.911 67.12 273.001 70.34C279.091 73.56 283.571 78.005 286.441 83.675C289.381 89.275 290.851 95.96 290.851 103.73C290.851 111.71 289.311 118.675 286.231 124.625C283.221 130.505 278.601 135.055 272.371 138.275C266.211 141.425 258.476 143 249.166 143H226.381C224.771 143 223.966 142.16 223.966 140.48V67.295C223.966 66.455 224.141 65.895 224.491 65.615C224.841 65.265 225.436 65.09 226.276 65.09ZM243.391 78.11C242.691 78.11 242.341 78.6 242.341 79.58V128.615C242.341 129.595 242.796 130.085 243.706 130.085H245.701C251.441 130.085 256.236 129.245 260.086 127.565C263.936 125.815 266.806 123.015 268.696 119.165C270.656 115.315 271.636 110.205 271.636 103.835C271.636 97.675 270.726 92.74 268.906 89.03C267.156 85.25 264.426 82.485 260.716 80.735C257.076 78.985 252.421 78.11 246.751 78.11H243.391ZM302.819 67.085C302.819 65.755 303.379 65.09 304.499 65.09H357.419C358.469 65.09 358.994 65.685 358.994 66.875L358.889 76.325C358.889 77.795 358.154 78.53 356.684 78.53H323.189C321.859 78.53 321.194 79.09 321.194 80.21V95.435C321.194 96.625 321.719 97.22 322.769 97.22H345.029C346.219 97.22 346.814 97.78 346.814 98.9V108.98C346.814 109.4 346.674 109.75 346.394 110.03C346.184 110.31 345.764 110.45 345.134 110.45H322.664C321.684 110.45 321.194 110.87 321.194 111.71V128.195C321.194 129.105 321.579 129.56 322.349 129.56H358.259C359.519 129.56 360.149 130.085 360.149 131.135V141.11C360.149 141.67 359.974 142.125 359.624 142.475C359.344 142.825 358.819 143 358.049 143H305.129C303.589 143 302.819 142.265 302.819 140.795V67.085ZM371.52 67.085C371.52 65.755 372.08 65.09 373.2 65.09H388.215C389.335 65.09 389.895 65.72 389.895 66.98V128.195C389.895 129.105 390.28 129.56 391.05 129.56H424.545C425.805 129.56 426.435 130.085 426.435 131.135V141.11C426.435 141.67 426.26 142.125 425.91 142.475C425.63 142.825 425.14 143 424.44 143H373.83C372.92 143 372.29 142.825 371.94 142.475C371.66 142.125 371.52 141.565 371.52 140.795V67.085ZM141.059 270C140.429 270 139.939 269.825 139.589 269.475C139.239 269.125 139.064 268.67 139.064 268.11V194.295C139.064 193.665 139.239 193.14 139.589 192.72C140.009 192.3 140.534 192.09 141.164 192.09H169.619C179.909 192.09 187.749 193.84 193.139 197.34C198.599 200.77 201.329 205.845 201.329 212.565C201.329 216.415 200.279 219.67 198.179 222.33C196.149 224.99 192.614 227.405 187.574 229.575C187.364 229.645 187.259 229.785 187.259 229.995C187.259 230.205 187.364 230.345 187.574 230.415C193.104 232.235 197.094 234.615 199.544 237.555C201.994 240.425 203.219 244.205 203.219 248.895C203.219 256.035 200.524 261.355 195.134 264.855C189.744 268.285 181.694 270 170.984 270H141.059ZM170.459 257.61C175.009 257.61 178.404 256.665 180.644 254.775C182.954 252.885 184.109 250.365 184.109 247.215C184.109 244.975 183.549 243.12 182.429 241.65C181.309 240.11 179.769 238.955 177.809 238.185C175.919 237.415 173.714 237.03 171.194 237.03H159.434C158.104 237.03 157.439 237.625 157.439 238.815V255.615C157.439 256.945 157.929 257.61 158.909 257.61H170.459ZM171.194 224.22C172.804 224.22 174.309 224.045 175.709 223.695C177.179 223.345 178.439 222.75 179.489 221.91C180.609 221.07 181.484 220.055 182.114 218.865C182.814 217.675 183.164 216.275 183.164 214.665C183.164 211.375 181.939 208.855 179.489 207.105C177.109 205.355 174.029 204.48 170.249 204.48H159.434C158.104 204.48 157.439 205.075 157.439 206.265V222.33C157.439 223.59 157.929 224.22 158.909 224.22H171.194ZM214.943 194.085C214.943 192.755 215.503 192.09 216.623 192.09H269.543C270.593 192.09 271.118 192.685 271.118 193.875L271.013 203.325C271.013 204.795 270.278 205.53 268.808 205.53H235.313C233.983 205.53 233.318 206.09 233.318 207.21V222.435C233.318 223.625 233.843 224.22 234.893 224.22H257.153C258.343 224.22 258.938 224.78 258.938 225.9V235.98C258.938 236.4 258.798 236.75 258.518 237.03C258.308 237.31 257.888 237.45 257.258 237.45H234.788C233.808 237.45 233.318 237.87 233.318 238.71V255.195C233.318 256.105 233.703 256.56 234.473 256.56H270.383C271.643 256.56 272.273 257.085 272.273 258.135V268.11C272.273 268.67 272.098 269.125 271.748 269.475C271.468 269.825 270.943 270 270.173 270H217.253C215.713 270 214.943 269.265 214.943 267.795V194.085ZM346.854 267.165C347.134 267.935 347.099 268.6 346.749 269.16C346.469 269.72 345.979 270 345.279 270H329.844C328.654 270 327.884 269.37 327.534 268.11L316.194 238.71C315.774 237.73 314.794 237.24 313.254 237.24H303.279C302.789 237.24 302.439 237.38 302.229 237.66C302.089 237.94 302.019 238.185 302.019 238.395V267.48C302.019 269.16 301.074 270 299.184 270H285.849C285.009 270 284.414 269.825 284.064 269.475C283.784 269.125 283.644 268.6 283.644 267.9V194.085C283.644 192.755 284.204 192.09 285.324 192.09H318.084C327.464 192.09 334.744 193.945 339.924 197.655C345.174 201.365 347.799 206.65 347.799 213.51C347.799 217.08 347.134 220.265 345.804 223.065C344.474 225.865 342.724 228.21 340.554 230.1C338.384 231.92 336.004 233.285 333.414 234.195C332.784 234.405 332.644 234.93 332.994 235.77L346.854 267.165ZM316.404 224.85C320.394 224.85 323.439 224.01 325.539 222.33C327.709 220.58 328.794 218.06 328.794 214.77C328.794 211.34 327.709 208.75 325.539 207C323.369 205.25 320.499 204.375 316.929 204.375H304.014C302.684 204.375 302.019 204.97 302.019 206.16V223.065C302.019 224.255 302.509 224.85 303.489 224.85H316.404ZM390.735 271.05C383.665 271.05 377.47 269.405 372.15 266.115C366.9 262.825 362.84 258.205 359.97 252.255C357.1 246.305 355.665 239.34 355.665 231.36C355.665 223.1 357.17 215.96 360.18 209.94C363.19 203.92 367.39 199.265 372.78 195.975C378.24 192.685 384.575 191.04 391.785 191.04C397.455 191.04 402.53 192.125 407.01 194.295C411.49 196.465 415.095 199.23 417.825 202.59C420.625 205.95 422.375 209.52 423.075 213.3C423.355 214.35 423.39 215.05 423.18 215.4C423.04 215.75 422.62 215.995 421.92 216.135L408.06 218.235C407.43 218.235 407.01 218.095 406.8 217.815C406.66 217.535 406.52 217.115 406.38 216.555C405.96 214.245 405.085 212.145 403.755 210.255C402.495 208.365 400.815 206.86 398.715 205.74C396.685 204.55 394.235 203.955 391.365 203.955C387.935 203.955 384.96 204.865 382.44 206.685C379.99 208.505 378.1 211.375 376.77 215.295C375.51 219.215 374.88 224.36 374.88 230.73C374.88 237.45 375.545 242.805 376.875 246.795C378.275 250.785 380.235 253.69 382.755 255.51C385.345 257.26 388.425 258.135 391.995 258.135C394.235 258.135 396.195 257.82 397.875 257.19C399.625 256.49 401.095 255.58 402.285 254.46C403.545 253.34 404.56 252.08 405.33 250.68C406.1 249.21 406.66 247.705 407.01 246.165L407.22 243.12C407.5 242.07 407.15 241.545 406.17 241.545H393.465C392.905 241.545 392.485 241.44 392.205 241.23C391.925 240.95 391.785 240.46 391.785 239.76V231.885C391.785 230.905 392.345 230.415 393.465 230.415L421.5 230.52C422.55 230.52 423.32 230.765 423.81 231.255C424.3 231.675 424.545 232.27 424.545 233.04V268.425C424.545 268.915 424.405 269.3 424.125 269.58C423.845 269.86 423.46 270 422.97 270H419.61C419.05 270 418.56 269.895 418.14 269.685C417.72 269.405 417.3 268.95 416.88 268.32L413.835 260.76C413.765 260.55 413.625 260.445 413.415 260.445C413.275 260.445 413.065 260.62 412.785 260.97C411.525 262.51 409.95 264.085 408.06 265.695C406.17 267.235 403.825 268.53 401.025 269.58C398.225 270.56 394.795 271.05 390.735 271.05ZM194.364 394.48C194.364 396.16 193.384 397 191.424 397H179.034C177.494 397 176.724 396.265 176.724 394.795V381.46C176.724 380.2 177.284 379.57 178.404 379.57H192.789C193.839 379.57 194.364 380.165 194.364 381.355V394.48ZM269.437 394.165C269.717 394.935 269.682 395.6 269.332 396.16C269.052 396.72 268.562 397 267.862 397H252.427C251.237 397 250.467 396.37 250.117 395.11L238.777 365.71C238.357 364.73 237.377 364.24 235.837 364.24H225.862C225.372 364.24 225.022 364.38 224.812 364.66C224.672 364.94 224.602 365.185 224.602 365.395V394.48C224.602 396.16 223.657 397 221.767 397H208.432C207.592 397 206.997 396.825 206.647 396.475C206.367 396.125 206.227 395.6 206.227 394.9V321.085C206.227 319.755 206.787 319.09 207.907 319.09H240.667C250.047 319.09 257.327 320.945 262.507 324.655C267.757 328.365 270.382 333.65 270.382 340.51C270.382 344.08 269.717 347.265 268.387 350.065C267.057 352.865 265.307 355.21 263.137 357.1C260.967 358.92 258.587 360.285 255.997 361.195C255.367 361.405 255.227 361.93 255.577 362.77L269.437 394.165ZM238.987 351.85C242.977 351.85 246.022 351.01 248.122 349.33C250.292 347.58 251.377 345.06 251.377 341.77C251.377 338.34 250.292 335.75 248.122 334C245.952 332.25 243.082 331.375 239.512 331.375H226.597C225.267 331.375 224.602 331.97 224.602 333.16V350.065C224.602 351.255 225.092 351.85 226.072 351.85H238.987ZM343.848 368.125C343.848 375.475 342.588 381.355 340.068 385.765C337.548 390.175 333.943 393.325 329.253 395.215C324.563 397.105 318.963 398.05 312.453 398.05C304.823 398.05 298.698 396.86 294.078 394.48C289.528 392.03 286.203 388.46 284.103 383.77C282.073 379.01 281.058 373.165 281.058 366.235V321.19C281.058 319.79 281.618 319.09 282.738 319.09H297.858C298.908 319.09 299.433 319.72 299.433 320.98V368.545C299.433 374.285 300.658 378.45 303.108 381.04C305.628 383.63 309.198 384.925 313.818 384.925C316.758 384.925 319.348 384.4 321.588 383.35C323.828 382.23 325.578 380.445 326.838 377.995C328.098 375.545 328.728 372.29 328.728 368.23V321.085C328.728 319.755 329.253 319.09 330.303 319.09H342.273C343.323 319.09 343.848 319.72 343.848 320.98V368.125ZM421.307 319.09C422.217 319.09 422.672 319.615 422.672 320.665V395.32C422.672 395.81 422.497 396.23 422.147 396.58C421.797 396.86 421.307 397 420.677 397H410.072C409.512 397 409.057 396.93 408.707 396.79C408.357 396.65 407.937 396.3 407.447 395.74L373.952 348.7C373.672 348.35 373.392 348.21 373.112 348.28C372.902 348.35 372.797 348.56 372.797 348.91V395.11C372.867 396.37 372.167 397 370.697 397H359.777C358.377 397 357.677 396.405 357.677 395.215V321.085C357.677 319.755 358.307 319.09 359.567 319.09H372.272C373.042 319.09 373.602 319.195 373.952 319.405C374.372 319.615 374.827 320.035 375.317 320.665L406.187 364.66C406.607 365.22 406.957 365.465 407.237 365.395C407.587 365.325 407.762 364.975 407.762 364.345V320.98C407.762 319.72 408.392 319.09 409.652 319.09H421.307Z" fill="white"/>
<rect x="10" y="10" width="445" height="445" stroke="white" stroke-width="20"/>
</svg>
