<svg width="500" height="500" viewBox="0 0 500 500" fill="none" xmlns="http://www.w3.org/2000/svg">
<rect width="500" height="500" fill="#1E1E1E"/>
<rect width="500" height="500" fill="#3F59FF"/>
<path d="M115.66 100.434V114.145H71.1289V100.434H115.66ZM76.3438 65.6875V151H58.7656V65.6875H76.3438ZM128.199 65.6875V151H110.68V65.6875H128.199ZM200.738 137.289V151H155.328V137.289H200.738ZM161.07 65.6875V151H143.492V65.6875H161.07ZM194.82 100.434V113.793H155.328V100.434H194.82ZM200.68 65.6875V79.457H155.328V65.6875H200.68ZM229.684 65.6875V151H212.164V65.6875H229.684ZM272.34 151H253.766L253.883 137.289H272.34C276.949 137.289 280.836 136.254 284 134.184C287.164 132.074 289.547 129.008 291.148 124.984C292.789 120.961 293.609 116.098 293.609 110.395V106.234C293.609 101.859 293.141 98.0117 292.203 94.6914C291.305 91.3711 289.957 88.5781 288.16 86.3125C286.363 84.0469 284.156 82.3477 281.539 81.2148C278.922 80.043 275.914 79.457 272.516 79.457H253.414V65.6875H272.516C278.219 65.6875 283.434 66.6641 288.16 68.6172C292.926 70.5312 297.047 73.2852 300.523 76.8789C304 80.4727 306.676 84.7695 308.551 89.7695C310.465 94.7305 311.422 100.258 311.422 106.352V110.395C311.422 116.449 310.465 121.977 308.551 126.977C306.676 131.977 304 136.273 300.523 139.867C297.086 143.422 292.965 146.176 288.16 148.129C283.395 150.043 278.121 151 272.34 151ZM263.727 65.6875V151H246.148V65.6875H263.727ZM381.441 137.289V151H336.031V137.289H381.441ZM341.773 65.6875V151H324.195V65.6875H341.773ZM375.523 100.434V113.793H336.031V100.434H375.523ZM381.383 65.6875V79.457H336.031V65.6875H381.383ZM446.539 137.289V151H403.59V137.289H446.539ZM409.273 65.6875V151H391.695V65.6875H409.273ZM187.203 254.559H165.289L165.172 242.488H183.57C186.812 242.488 189.469 242.078 191.539 241.258C193.609 240.398 195.152 239.168 196.168 237.566C197.223 235.926 197.75 233.934 197.75 231.59C197.75 228.934 197.242 226.785 196.227 225.145C195.25 223.504 193.707 222.312 191.598 221.57C189.527 220.828 186.852 220.457 183.57 220.457H171.383V292H153.805V206.688H183.57C188.531 206.688 192.965 207.156 196.871 208.094C200.816 209.031 204.156 210.457 206.891 212.371C209.625 214.285 211.715 216.707 213.16 219.637C214.605 222.527 215.328 225.965 215.328 229.949C215.328 233.465 214.527 236.707 212.926 239.676C211.363 242.645 208.883 245.066 205.484 246.941C202.125 248.816 197.73 249.852 192.301 250.047L187.203 254.559ZM186.441 292H160.484L167.34 278.289H186.441C189.527 278.289 192.047 277.801 194 276.824C195.953 275.809 197.398 274.441 198.336 272.723C199.273 271.004 199.742 269.031 199.742 266.805C199.742 264.305 199.312 262.137 198.453 260.301C197.633 258.465 196.305 257.059 194.469 256.082C192.633 255.066 190.211 254.559 187.203 254.559H170.27L170.387 242.488H191.48L195.523 247.234C200.719 247.156 204.898 248.074 208.062 249.988C211.266 251.863 213.59 254.305 215.035 257.312C216.52 260.32 217.262 263.543 217.262 266.98C217.262 272.449 216.07 277.059 213.688 280.809C211.305 284.52 207.809 287.312 203.199 289.188C198.629 291.062 193.043 292 186.441 292ZM287.691 278.289V292H242.281V278.289H287.691ZM248.023 206.688V292H230.445V206.688H248.023ZM281.773 241.434V254.793H242.281V241.434H281.773ZM287.633 206.688V220.457H242.281V206.688H287.633ZM297.945 206.688H329.762C336.285 206.688 341.891 207.664 346.578 209.617C351.305 211.57 354.938 214.461 357.477 218.289C360.016 222.117 361.285 226.824 361.285 232.41C361.285 236.98 360.504 240.906 358.941 244.188C357.418 247.43 355.25 250.145 352.438 252.332C349.664 254.48 346.402 256.199 342.652 257.488L337.086 260.418H309.43L309.312 246.707H329.879C332.965 246.707 335.523 246.16 337.555 245.066C339.586 243.973 341.109 242.449 342.125 240.496C343.18 238.543 343.707 236.277 343.707 233.699C343.707 230.965 343.199 228.602 342.184 226.609C341.168 224.617 339.625 223.094 337.555 222.039C335.484 220.984 332.887 220.457 329.762 220.457H315.523V292H297.945V206.688ZM345.641 292L326.188 253.973L344.762 253.855L364.449 291.18V292H345.641ZM442.438 247.41V281.219C441.109 282.82 439.059 284.559 436.285 286.434C433.512 288.27 429.938 289.852 425.562 291.18C421.188 292.508 415.895 293.172 409.684 293.172C404.176 293.172 399.156 292.273 394.625 290.477C390.094 288.641 386.188 285.965 382.906 282.449C379.664 278.934 377.164 274.637 375.406 269.559C373.648 264.441 372.77 258.602 372.77 252.039V246.707C372.77 240.145 373.609 234.305 375.289 229.188C377.008 224.07 379.449 219.754 382.613 216.238C385.777 212.723 389.547 210.047 393.922 208.211C398.297 206.375 403.16 205.457 408.512 205.457C415.934 205.457 422.027 206.668 426.793 209.09C431.559 211.473 435.191 214.793 437.691 219.051C440.23 223.27 441.793 228.113 442.379 233.582H425.328C424.898 230.691 424.078 228.172 422.867 226.023C421.656 223.875 419.918 222.195 417.652 220.984C415.426 219.773 412.535 219.168 408.98 219.168C406.051 219.168 403.434 219.773 401.129 220.984C398.863 222.156 396.949 223.895 395.387 226.199C393.824 228.504 392.633 231.355 391.812 234.754C390.992 238.152 390.582 242.098 390.582 246.59V252.039C390.582 256.492 391.012 260.438 391.871 263.875C392.73 267.273 394 270.145 395.68 272.488C397.398 274.793 399.508 276.531 402.008 277.703C404.508 278.875 407.418 279.461 410.738 279.461C413.512 279.461 415.816 279.227 417.652 278.758C419.527 278.289 421.031 277.723 422.164 277.059C423.336 276.355 424.234 275.691 424.859 275.066V259.949H408.805V247.41H442.438ZM180.875 424.855C180.875 422.355 181.734 420.266 183.453 418.586C185.211 416.906 187.535 416.066 190.426 416.066C193.316 416.066 195.621 416.906 197.34 418.586C199.098 420.266 199.977 422.355 199.977 424.855C199.977 427.355 199.098 429.445 197.34 431.125C195.621 432.805 193.316 433.645 190.426 433.645C187.535 433.645 185.211 432.805 183.453 431.125C181.734 429.445 180.875 427.355 180.875 424.855ZM215.914 347.688H247.73C254.254 347.688 259.859 348.664 264.547 350.617C269.273 352.57 272.906 355.461 275.445 359.289C277.984 363.117 279.254 367.824 279.254 373.41C279.254 377.98 278.473 381.906 276.91 385.188C275.387 388.43 273.219 391.145 270.406 393.332C267.633 395.48 264.371 397.199 260.621 398.488L255.055 401.418H227.398L227.281 387.707H247.848C250.934 387.707 253.492 387.16 255.523 386.066C257.555 384.973 259.078 383.449 260.094 381.496C261.148 379.543 261.676 377.277 261.676 374.699C261.676 371.965 261.168 369.602 260.152 367.609C259.137 365.617 257.594 364.094 255.523 363.039C253.453 361.984 250.855 361.457 247.73 361.457H233.492V433H215.914V347.688ZM263.609 433L244.156 394.973L262.73 394.855L282.418 432.18V433H263.609ZM339.898 347.688H357.418V404.055C357.418 410.617 356.012 416.145 353.199 420.637C350.426 425.129 346.578 428.508 341.656 430.773C336.773 433.039 331.148 434.172 324.781 434.172C318.414 434.172 312.75 433.039 307.789 430.773C302.867 428.508 299 425.129 296.188 420.637C293.414 416.145 292.027 410.617 292.027 404.055V347.688H309.605V404.055C309.605 407.883 310.211 411.008 311.422 413.43C312.633 415.852 314.371 417.629 316.637 418.762C318.941 419.895 321.656 420.461 324.781 420.461C327.984 420.461 330.699 419.895 332.926 418.762C335.191 417.629 336.91 415.852 338.082 413.43C339.293 411.008 339.898 407.883 339.898 404.055V347.688ZM441.324 347.688V433H423.746L389.469 375.812V433H371.891V347.688H389.469L423.805 404.934V347.688H441.324Z" fill="white"/>
<rect x="22" y="23" width="455" height="455" stroke="white" stroke-width="10"/>
</svg>
