<svg width="500" height="500" viewBox="0 0 500 500" fill="none" xmlns="http://www.w3.org/2000/svg">
<rect width="500" height="500" fill="#1E1E1E"/>
<rect width="500" height="500" fill="#3F59FF"/>
<path d="M80.0324 127.715C79.1224 127.715 78.6674 128.17 78.6674 129.08V158.585C78.6674 160.195 77.7224 161 75.8324 161H62.6024C61.6924 161 61.0624 160.825 60.7124 160.475C60.4324 160.125 60.2924 159.565 60.2924 158.795V85.085C60.2924 83.755 60.8524 83.09 61.9724 83.09H76.9874C78.1074 83.09 78.6674 83.72 78.6674 84.98V111.86C78.6674 113.05 79.1924 113.645 80.2424 113.645H104.497C105.617 113.645 106.177 113.085 106.177 111.965V84.98C106.177 83.72 106.702 83.09 107.752 83.09H122.767C123.957 83.09 124.552 83.755 124.552 85.085V158.795C124.552 159.565 124.377 160.125 124.027 160.475C123.747 160.825 123.152 161 122.242 161H108.907C107.087 161 106.177 160.195 106.177 158.585V129.08C106.177 128.17 105.687 127.715 104.707 127.715H80.0324ZM139.145 85.085C139.145 83.755 139.705 83.09 140.825 83.09H193.745C194.795 83.09 195.32 83.685 195.32 84.875L195.215 94.325C195.215 95.795 194.48 96.53 193.01 96.53H159.515C158.185 96.53 157.52 97.09 157.52 98.21V113.435C157.52 114.625 158.045 115.22 159.095 115.22H181.355C182.545 115.22 183.14 115.78 183.14 116.9V126.98C183.14 127.4 183 127.75 182.72 128.03C182.51 128.31 182.09 128.45 181.46 128.45H158.99C158.01 128.45 157.52 128.87 157.52 129.71V146.195C157.52 147.105 157.905 147.56 158.675 147.56H194.585C195.845 147.56 196.475 148.085 196.475 149.135V159.11C196.475 159.67 196.3 160.125 195.95 160.475C195.67 160.825 195.145 161 194.375 161H141.455C139.915 161 139.145 160.265 139.145 158.795V85.085ZM224.541 83.09C225.661 83.09 226.221 83.72 226.221 84.98V158.48C226.221 159.39 225.976 160.055 225.486 160.475C225.066 160.825 224.366 161 223.386 161H210.156C209.246 161 208.616 160.825 208.266 160.475C207.986 160.125 207.846 159.565 207.846 158.795V85.085C207.846 83.755 208.406 83.09 209.526 83.09H224.541ZM243.276 83.09C244.536 83.09 246.216 83.09 248.316 83.09C250.486 83.09 252.726 83.09 255.036 83.09C257.416 83.09 259.656 83.09 261.756 83.09C263.856 83.09 265.501 83.125 266.691 83.195C276.141 83.405 283.911 85.12 290.001 88.34C296.091 91.56 300.571 96.005 303.441 101.675C306.381 107.275 307.851 113.96 307.851 121.73C307.851 129.71 306.311 136.675 303.231 142.625C300.221 148.505 295.601 153.055 289.371 156.275C283.211 159.425 275.476 161 266.166 161H243.381C241.771 161 240.966 160.16 240.966 158.48V85.295C240.966 84.455 241.141 83.895 241.491 83.615C241.841 83.265 242.436 83.09 243.276 83.09ZM260.391 96.11C259.691 96.11 259.341 96.6 259.341 97.58V146.615C259.341 147.595 259.796 148.085 260.706 148.085H262.701C268.441 148.085 273.236 147.245 277.086 145.565C280.936 143.815 283.806 141.015 285.696 137.165C287.656 133.315 288.636 128.205 288.636 121.835C288.636 115.675 287.726 110.74 285.906 107.03C284.156 103.25 281.426 100.485 277.716 98.735C274.076 96.985 269.421 96.11 263.751 96.11H260.391ZM319.819 85.085C319.819 83.755 320.379 83.09 321.499 83.09H374.419C375.469 83.09 375.994 83.685 375.994 84.875L375.889 94.325C375.889 95.795 375.154 96.53 373.684 96.53H340.189C338.859 96.53 338.194 97.09 338.194 98.21V113.435C338.194 114.625 338.719 115.22 339.769 115.22H362.029C363.219 115.22 363.814 115.78 363.814 116.9V126.98C363.814 127.4 363.674 127.75 363.394 128.03C363.184 128.31 362.764 128.45 362.134 128.45H339.664C338.684 128.45 338.194 128.87 338.194 129.71V146.195C338.194 147.105 338.579 147.56 339.349 147.56H375.259C376.519 147.56 377.149 148.085 377.149 149.135V159.11C377.149 159.67 376.974 160.125 376.624 160.475C376.344 160.825 375.819 161 375.049 161H322.129C320.589 161 319.819 160.265 319.819 158.795V85.085ZM388.52 85.085C388.52 83.755 389.08 83.09 390.2 83.09H405.215C406.335 83.09 406.895 83.72 406.895 84.98V146.195C406.895 147.105 407.28 147.56 408.05 147.56H441.545C442.805 147.56 443.435 148.085 443.435 149.135V159.11C443.435 159.67 443.26 160.125 442.91 160.475C442.63 160.825 442.14 161 441.44 161H390.83C389.92 161 389.29 160.825 388.94 160.475C388.66 160.125 388.52 159.565 388.52 158.795V85.085ZM158.059 288C157.429 288 156.939 287.825 156.589 287.475C156.239 287.125 156.064 286.67 156.064 286.11V212.295C156.064 211.665 156.239 211.14 156.589 210.72C157.009 210.3 157.534 210.09 158.164 210.09H186.619C196.909 210.09 204.749 211.84 210.139 215.34C215.599 218.77 218.329 223.845 218.329 230.565C218.329 234.415 217.279 237.67 215.179 240.33C213.149 242.99 209.614 245.405 204.574 247.575C204.364 247.645 204.259 247.785 204.259 247.995C204.259 248.205 204.364 248.345 204.574 248.415C210.104 250.235 214.094 252.615 216.544 255.555C218.994 258.425 220.219 262.205 220.219 266.895C220.219 274.035 217.524 279.355 212.134 282.855C206.744 286.285 198.694 288 187.984 288H158.059ZM187.459 275.61C192.009 275.61 195.404 274.665 197.644 272.775C199.954 270.885 201.109 268.365 201.109 265.215C201.109 262.975 200.549 261.12 199.429 259.65C198.309 258.11 196.769 256.955 194.809 256.185C192.919 255.415 190.714 255.03 188.194 255.03H176.434C175.104 255.03 174.439 255.625 174.439 256.815V273.615C174.439 274.945 174.929 275.61 175.909 275.61H187.459ZM188.194 242.22C189.804 242.22 191.309 242.045 192.709 241.695C194.179 241.345 195.439 240.75 196.489 239.91C197.609 239.07 198.484 238.055 199.114 236.865C199.814 235.675 200.164 234.275 200.164 232.665C200.164 229.375 198.939 226.855 196.489 225.105C194.109 223.355 191.029 222.48 187.249 222.48H176.434C175.104 222.48 174.439 223.075 174.439 224.265V240.33C174.439 241.59 174.929 242.22 175.909 242.22H188.194ZM231.943 212.085C231.943 210.755 232.503 210.09 233.623 210.09H286.543C287.593 210.09 288.118 210.685 288.118 211.875L288.013 221.325C288.013 222.795 287.278 223.53 285.808 223.53H252.313C250.983 223.53 250.318 224.09 250.318 225.21V240.435C250.318 241.625 250.843 242.22 251.893 242.22H274.153C275.343 242.22 275.938 242.78 275.938 243.9V253.98C275.938 254.4 275.798 254.75 275.518 255.03C275.308 255.31 274.888 255.45 274.258 255.45H251.788C250.808 255.45 250.318 255.87 250.318 256.71V273.195C250.318 274.105 250.703 274.56 251.473 274.56H287.383C288.643 274.56 289.273 275.085 289.273 276.135V286.11C289.273 286.67 289.098 287.125 288.748 287.475C288.468 287.825 287.943 288 287.173 288H234.253C232.713 288 231.943 287.265 231.943 285.795V212.085ZM363.854 285.165C364.134 285.935 364.099 286.6 363.749 287.16C363.469 287.72 362.979 288 362.279 288H346.844C345.654 288 344.884 287.37 344.534 286.11L333.194 256.71C332.774 255.73 331.794 255.24 330.254 255.24H320.279C319.789 255.24 319.439 255.38 319.229 255.66C319.089 255.94 319.019 256.185 319.019 256.395V285.48C319.019 287.16 318.074 288 316.184 288H302.849C302.009 288 301.414 287.825 301.064 287.475C300.784 287.125 300.644 286.6 300.644 285.9V212.085C300.644 210.755 301.204 210.09 302.324 210.09H335.084C344.464 210.09 351.744 211.945 356.924 215.655C362.174 219.365 364.799 224.65 364.799 231.51C364.799 235.08 364.134 238.265 362.804 241.065C361.474 243.865 359.724 246.21 357.554 248.1C355.384 249.92 353.004 251.285 350.414 252.195C349.784 252.405 349.644 252.93 349.994 253.77L363.854 285.165ZM333.404 242.85C337.394 242.85 340.439 242.01 342.539 240.33C344.709 238.58 345.794 236.06 345.794 232.77C345.794 229.34 344.709 226.75 342.539 225C340.369 223.25 337.499 222.375 333.929 222.375H321.014C319.684 222.375 319.019 222.97 319.019 224.16V241.065C319.019 242.255 319.509 242.85 320.489 242.85H333.404ZM407.735 289.05C400.665 289.05 394.47 287.405 389.15 284.115C383.9 280.825 379.84 276.205 376.97 270.255C374.1 264.305 372.665 257.34 372.665 249.36C372.665 241.1 374.17 233.96 377.18 227.94C380.19 221.92 384.39 217.265 389.78 213.975C395.24 210.685 401.575 209.04 408.785 209.04C414.455 209.04 419.53 210.125 424.01 212.295C428.49 214.465 432.095 217.23 434.825 220.59C437.625 223.95 439.375 227.52 440.075 231.3C440.355 232.35 440.39 233.05 440.18 233.4C440.04 233.75 439.62 233.995 438.92 234.135L425.06 236.235C424.43 236.235 424.01 236.095 423.8 235.815C423.66 235.535 423.52 235.115 423.38 234.555C422.96 232.245 422.085 230.145 420.755 228.255C419.495 226.365 417.815 224.86 415.715 223.74C413.685 222.55 411.235 221.955 408.365 221.955C404.935 221.955 401.96 222.865 399.44 224.685C396.99 226.505 395.1 229.375 393.77 233.295C392.51 237.215 391.88 242.36 391.88 248.73C391.88 255.45 392.545 260.805 393.875 264.795C395.275 268.785 397.235 271.69 399.755 273.51C402.345 275.26 405.425 276.135 408.995 276.135C411.235 276.135 413.195 275.82 414.875 275.19C416.625 274.49 418.095 273.58 419.285 272.46C420.545 271.34 421.56 270.08 422.33 268.68C423.1 267.21 423.66 265.705 424.01 264.165L424.22 261.12C424.5 260.07 424.15 259.545 423.17 259.545H410.465C409.905 259.545 409.485 259.44 409.205 259.23C408.925 258.95 408.785 258.46 408.785 257.76V249.885C408.785 248.905 409.345 248.415 410.465 248.415L438.5 248.52C439.55 248.52 440.32 248.765 440.81 249.255C441.3 249.675 441.545 250.27 441.545 251.04V286.425C441.545 286.915 441.405 287.3 441.125 287.58C440.845 287.86 440.46 288 439.97 288H436.61C436.05 288 435.56 287.895 435.14 287.685C434.72 287.405 434.3 286.95 433.88 286.32L430.835 278.76C430.765 278.55 430.625 278.445 430.415 278.445C430.275 278.445 430.065 278.62 429.785 278.97C428.525 280.51 426.95 282.085 425.06 283.695C423.17 285.235 420.825 286.53 418.025 287.58C415.225 288.56 411.795 289.05 407.735 289.05ZM211.364 412.48C211.364 414.16 210.384 415 208.424 415H196.034C194.494 415 193.724 414.265 193.724 412.795V399.46C193.724 398.2 194.284 397.57 195.404 397.57H209.789C210.839 397.57 211.364 398.165 211.364 399.355V412.48ZM286.437 412.165C286.717 412.935 286.682 413.6 286.332 414.16C286.052 414.72 285.562 415 284.862 415H269.427C268.237 415 267.467 414.37 267.117 413.11L255.777 383.71C255.357 382.73 254.377 382.24 252.837 382.24H242.862C242.372 382.24 242.022 382.38 241.812 382.66C241.672 382.94 241.602 383.185 241.602 383.395V412.48C241.602 414.16 240.657 415 238.767 415H225.432C224.592 415 223.997 414.825 223.647 414.475C223.367 414.125 223.227 413.6 223.227 412.9V339.085C223.227 337.755 223.787 337.09 224.907 337.09H257.667C267.047 337.09 274.327 338.945 279.507 342.655C284.757 346.365 287.382 351.65 287.382 358.51C287.382 362.08 286.717 365.265 285.387 368.065C284.057 370.865 282.307 373.21 280.137 375.1C277.967 376.92 275.587 378.285 272.997 379.195C272.367 379.405 272.227 379.93 272.577 380.77L286.437 412.165ZM255.987 369.85C259.977 369.85 263.022 369.01 265.122 367.33C267.292 365.58 268.377 363.06 268.377 359.77C268.377 356.34 267.292 353.75 265.122 352C262.952 350.25 260.082 349.375 256.512 349.375H243.597C242.267 349.375 241.602 349.97 241.602 351.16V368.065C241.602 369.255 242.092 369.85 243.072 369.85H255.987ZM360.848 386.125C360.848 393.475 359.588 399.355 357.068 403.765C354.548 408.175 350.943 411.325 346.253 413.215C341.563 415.105 335.963 416.05 329.453 416.05C321.823 416.05 315.698 414.86 311.078 412.48C306.528 410.03 303.203 406.46 301.103 401.77C299.073 397.01 298.058 391.165 298.058 384.235V339.19C298.058 337.79 298.618 337.09 299.738 337.09H314.858C315.908 337.09 316.433 337.72 316.433 338.98V386.545C316.433 392.285 317.658 396.45 320.108 399.04C322.628 401.63 326.198 402.925 330.818 402.925C333.758 402.925 336.348 402.4 338.588 401.35C340.828 400.23 342.578 398.445 343.838 395.995C345.098 393.545 345.728 390.29 345.728 386.23V339.085C345.728 337.755 346.253 337.09 347.303 337.09H359.273C360.323 337.09 360.848 337.72 360.848 338.98V386.125ZM438.307 337.09C439.217 337.09 439.672 337.615 439.672 338.665V413.32C439.672 413.81 439.497 414.23 439.147 414.58C438.797 414.86 438.307 415 437.677 415H427.072C426.512 415 426.057 414.93 425.707 414.79C425.357 414.65 424.937 414.3 424.447 413.74L390.952 366.7C390.672 366.35 390.392 366.21 390.112 366.28C389.902 366.35 389.797 366.56 389.797 366.91V413.11C389.867 414.37 389.167 415 387.697 415H376.777C375.377 415 374.677 414.405 374.677 413.215V339.085C374.677 337.755 375.307 337.09 376.567 337.09H389.272C390.042 337.09 390.602 337.195 390.952 337.405C391.372 337.615 391.827 338.035 392.317 338.665L423.187 382.66C423.607 383.22 423.957 383.465 424.237 383.395C424.587 383.325 424.762 382.975 424.762 382.345V338.98C424.762 337.72 425.392 337.09 426.652 337.09H438.307Z" fill="white"/>
<rect x="27" y="28" width="445" height="445" stroke="white" stroke-width="20"/>
</svg>
